<svg width="504" height="160" viewBox="0 0 504 160" fill="none" xmlns="http://www.w3.org/2000/svg">
<rect x="0.5" y="0.5" width="503" height="159" fill="#F2F6FF"/>
<rect x="0.5" y="0.5" width="503" height="159" stroke="#DCE4FA"/>
<rect x="86.5" y="11.5" width="91" height="28" rx="14" fill="white"/>
<rect x="86.5" y="11.5" width="91" height="28" rx="14" stroke="#AEBDE6"/>
<path d="M107 24.1647C107 24.7775 107.121 25.3844 107.355 25.9506C107.59 26.5168 107.933 27.0312 108.367 27.4645C108.8 27.8979 109.315 28.2416 109.881 28.4762C110.447 28.7107 111.054 28.8314 111.667 28.8314C112.28 28.8314 112.886 28.7107 113.453 28.4762C114.019 28.2416 114.533 27.8979 114.966 27.4645C115.4 27.0312 115.744 26.5168 115.978 25.9506C116.213 25.3844 116.333 24.7775 116.333 24.1647C116.333 23.5519 116.213 22.945 115.978 22.3789C115.744 21.8127 115.4 21.2982 114.966 20.8649C114.533 20.4315 114.019 20.0878 113.453 19.8533C112.886 19.6188 112.28 19.498 111.667 19.498C111.054 19.498 110.447 19.6188 109.881 19.8533C109.315 20.0878 108.8 20.4315 108.367 20.8649C107.933 21.2982 107.59 21.8127 107.355 22.3789C107.121 22.945 107 23.5519 107 24.1647Z" stroke="#102252" stroke-width="1.33333" stroke-linecap="round" stroke-linejoin="round"/>
<path d="M119 31.498L115 27.498" stroke="#102252" stroke-width="1.33333" stroke-linecap="round" stroke-linejoin="round"/>
<path d="M129.833 20.0469V30H128.534V20.0469H129.833ZM133.032 20.0469V21.127H125.342V20.0469H133.032ZM140.832 28.9268V30H135.562V28.9268H140.832ZM135.828 20.0469V30H134.509V20.0469H135.828ZM140.135 24.3262V25.3994H135.562V24.3262H140.135ZM140.764 20.0469V21.127H135.562V20.0469H140.764ZM143.32 20.0469L145.713 23.8613L148.105 20.0469H149.644L146.499 24.9756L149.719 30H148.167L145.713 26.1104L143.259 30H141.707L144.927 24.9756L141.782 20.0469H143.32ZM154.921 20.0469V30H153.622V20.0469H154.921ZM158.12 20.0469V21.127H150.43V20.0469H158.12Z" fill="#102252"/>
<circle opacity="0.8" cx="218" cy="111" r="5" fill="#DC244C"/>
<circle opacity="0.8" cx="430" cy="89" r="5" fill="#06153D"/>
<circle opacity="0.8" cx="147" cy="132" r="5" fill="#06153D"/>
<circle opacity="0.8" cx="189" cy="89" r="5" fill="#06153D"/>
<circle opacity="0.8" cx="118" cy="114" r="5" fill="#06153D"/>
<circle opacity="0.8" cx="147" cy="84" r="5" fill="#06153D"/>
<circle opacity="0.8" cx="170" cy="113" r="5" fill="#06153D"/>
<circle opacity="0.8" cx="84" cy="113" r="5" fill="#06153D"/>
<rect x="313.5" y="11.5" width="91" height="28" rx="14" fill="white"/>
<rect x="313.5" y="11.5" width="91" height="28" rx="14" stroke="#AEBDE6"/>
<path d="M333 24.1647C333 24.7775 333.121 25.3844 333.355 25.9506C333.59 26.5168 333.933 27.0312 334.367 27.4645C334.8 27.8979 335.315 28.2416 335.881 28.4762C336.447 28.7107 337.054 28.8314 337.667 28.8314C338.28 28.8314 338.886 28.7107 339.453 28.4762C340.019 28.2416 340.533 27.8979 340.966 27.4645C341.4 27.0312 341.744 26.5168 341.978 25.9506C342.213 25.3844 342.333 24.7775 342.333 24.1647C342.333 23.5519 342.213 22.945 341.978 22.3789C341.744 21.8127 341.4 21.2982 340.966 20.8649C340.533 20.4315 340.019 20.0878 339.453 19.8533C338.886 19.6188 338.28 19.498 337.667 19.498C337.054 19.498 336.447 19.6188 335.881 19.8533C335.315 20.0878 334.8 20.4315 334.367 20.8649C333.933 21.2982 333.59 21.8127 333.355 22.3789C333.121 22.945 333 23.5519 333 24.1647Z" stroke="#102252" stroke-width="1.33333" stroke-linecap="round" stroke-linejoin="round"/>
<path d="M345 31.498L341 27.498" stroke="#102252" stroke-width="1.33333" stroke-linecap="round" stroke-linejoin="round"/>
<path d="M358.164 26.835H359.477C359.408 27.4639 359.228 28.0267 358.937 28.5234C358.645 29.0202 358.232 29.4144 357.699 29.7061C357.166 29.9932 356.501 30.1367 355.703 30.1367C355.12 30.1367 354.589 30.0273 354.11 29.8086C353.636 29.5898 353.229 29.2799 352.887 28.8789C352.545 28.4733 352.281 27.988 352.094 27.4229C351.911 26.8532 351.82 26.2197 351.82 25.5225V24.5312C351.82 23.834 351.911 23.2028 352.094 22.6377C352.281 22.068 352.547 21.5804 352.894 21.1748C353.244 20.7692 353.666 20.457 354.158 20.2383C354.65 20.0195 355.204 19.9102 355.819 19.9102C356.571 19.9102 357.207 20.0514 357.727 20.334C358.246 20.6165 358.649 21.0085 358.937 21.5098C359.228 22.0065 359.408 22.583 359.477 23.2393H358.164C358.1 22.7744 357.982 22.3757 357.809 22.043C357.635 21.7057 357.389 21.446 357.07 21.2637C356.751 21.0814 356.334 20.9902 355.819 20.9902C355.377 20.9902 354.988 21.0745 354.65 21.2432C354.318 21.4118 354.037 21.651 353.81 21.9609C353.586 22.2708 353.418 22.6423 353.304 23.0752C353.19 23.5081 353.133 23.9889 353.133 24.5176V25.5225C353.133 26.0101 353.183 26.4681 353.283 26.8965C353.388 27.3249 353.545 27.7008 353.755 28.0244C353.965 28.348 354.231 28.6032 354.555 28.79C354.878 28.9723 355.261 29.0635 355.703 29.0635C356.264 29.0635 356.71 28.9746 357.043 28.7969C357.376 28.6191 357.626 28.3639 357.795 28.0312C357.968 27.6986 358.091 27.2998 358.164 26.835ZM368.938 24.709V25.3379C368.938 26.0853 368.844 26.7552 368.657 27.3477C368.47 27.9401 368.201 28.4437 367.851 28.8584C367.5 29.2731 367.078 29.5898 366.586 29.8086C366.098 30.0273 365.551 30.1367 364.945 30.1367C364.357 30.1367 363.817 30.0273 363.325 29.8086C362.838 29.5898 362.414 29.2731 362.054 28.8584C361.698 28.4437 361.423 27.9401 361.227 27.3477C361.031 26.7552 360.933 26.0853 360.933 25.3379V24.709C360.933 23.9616 361.028 23.2939 361.22 22.7061C361.416 22.1136 361.691 21.61 362.047 21.1953C362.402 20.776 362.824 20.457 363.312 20.2383C363.804 20.0195 364.344 19.9102 364.932 19.9102C365.538 19.9102 366.085 20.0195 366.572 20.2383C367.064 20.457 367.486 20.776 367.837 21.1953C368.192 21.61 368.464 22.1136 368.65 22.7061C368.842 23.2939 368.938 23.9616 368.938 24.709ZM367.632 25.3379V24.6953C367.632 24.1029 367.57 23.5788 367.447 23.123C367.329 22.6673 367.153 22.2845 366.921 21.9746C366.688 21.6647 366.404 21.43 366.066 21.2705C365.734 21.111 365.355 21.0312 364.932 21.0312C364.521 21.0312 364.15 21.111 363.817 21.2705C363.489 21.43 363.207 21.6647 362.97 21.9746C362.737 22.2845 362.557 22.6673 362.43 23.123C362.302 23.5788 362.238 24.1029 362.238 24.6953V25.3379C362.238 25.9349 362.302 26.4635 362.43 26.9238C362.557 27.3796 362.74 27.7646 362.977 28.0791C363.218 28.389 363.503 28.6237 363.831 28.7832C364.164 28.9427 364.535 29.0225 364.945 29.0225C365.374 29.0225 365.754 28.9427 366.087 28.7832C366.42 28.6237 366.7 28.389 366.928 28.0791C367.16 27.7646 367.336 27.3796 367.454 26.9238C367.573 26.4635 367.632 25.9349 367.632 25.3379ZM373.606 30H371.528L371.542 28.9268H373.606C374.317 28.9268 374.91 28.7786 375.384 28.4824C375.858 28.1816 376.213 27.7624 376.45 27.2246C376.692 26.6823 376.812 26.0488 376.812 25.3242V24.7158C376.812 24.1462 376.744 23.6403 376.607 23.1982C376.471 22.7516 376.27 22.3757 376.006 22.0703C375.742 21.7604 375.418 21.5257 375.035 21.3662C374.657 21.2067 374.222 21.127 373.729 21.127H371.487V20.0469H373.729C374.381 20.0469 374.976 20.1562 375.514 20.375C376.051 20.5892 376.514 20.9014 376.901 21.3115C377.293 21.7171 377.594 22.2093 377.804 22.7881C378.013 23.3623 378.118 24.0094 378.118 24.7295V25.3242C378.118 26.0443 378.013 26.6937 377.804 27.2725C377.594 27.8467 377.291 28.3366 376.895 28.7422C376.503 29.1478 376.029 29.46 375.473 29.6787C374.921 29.8929 374.299 30 373.606 30ZM372.232 20.0469V30H370.913V20.0469H372.232ZM386.424 28.9268V30H381.153V28.9268H386.424ZM381.42 20.0469V30H380.101V20.0469H381.42ZM385.727 24.3262V25.3994H381.153V24.3262H385.727ZM386.355 20.0469V21.127H381.153V20.0469H386.355Z" fill="#102252"/>
<circle opacity="0.8" cx="260" cy="121" r="5" fill="#DC244C"/>
<circle opacity="0.8" cx="345" cy="84" r="5" fill="#06153D"/>
<circle opacity="0.8" cx="457" cy="123" r="5" fill="#06153D"/>
<circle opacity="0.8" cx="264" cy="103" r="5" fill="#DC244C"/>
<circle opacity="0.8" cx="336" cy="114" r="5" fill="#06153D"/>
<circle opacity="0.8" cx="241" cy="94" r="5" fill="#DC244C"/>
<circle opacity="0.8" cx="405" cy="103" r="5" fill="#06153D"/>
<circle opacity="0.8" cx="379" cy="132" r="5" fill="#06153D"/>
<path d="M290.496 104.569C291.149 105.843 291.595 107.138 291.822 108.451L291.33 108.536C291.443 109.187 291.5 109.842 291.5 110.5C291.5 111.158 291.443 111.813 291.33 112.464L291.822 112.549C291.595 113.862 291.149 115.157 290.496 116.431L290.051 116.203C289.478 117.322 288.737 118.431 287.834 119.525L288.219 119.844C287.395 120.841 286.443 121.824 285.367 122.789L285.033 122.417C284.072 123.279 283.01 124.129 281.849 124.965L282.141 125.371C281.078 126.136 279.936 126.89 278.717 127.629L278.457 127.202C277.338 127.881 276.153 128.549 274.905 129.206L275.137 129.648C273.961 130.267 272.729 130.874 271.445 131.47L271.234 131.017C270.03 131.576 268.778 132.124 267.481 132.663L267.673 133.125C266.436 133.638 265.159 134.142 263.842 134.635L263.667 134.167C262.416 134.636 261.128 135.096 259.806 135.547L259.967 136.02C258.695 136.454 257.391 136.879 256.056 137.294L255.907 136.817C254.625 137.216 253.314 137.607 251.976 137.99L252.113 138.47C250.816 138.841 249.492 139.204 248.144 139.558L248.017 139.074C246.712 139.417 245.383 139.752 244.032 140.079L244.149 140.565C242.832 140.884 241.492 141.195 240.132 141.498L240.023 141.01C238.703 141.304 237.362 141.591 236.003 141.87L236.103 142.36C234.778 142.632 233.436 142.897 232.076 143.154L231.983 142.663C230.653 142.914 229.306 143.158 227.944 143.395L228.029 143.888C226.689 144.121 225.334 144.347 223.964 144.565L223.885 144.071C222.542 144.286 221.184 144.493 219.812 144.693L219.884 145.188C218.542 145.383 217.188 145.572 215.82 145.754L215.754 145.258C214.408 145.437 213.049 145.61 211.679 145.775L211.739 146.271C210.384 146.434 209.018 146.591 207.641 146.74L207.587 146.243C206.236 146.39 204.874 146.53 203.501 146.663L203.55 147.161C202.195 147.292 200.83 147.417 199.456 147.535L199.413 147.037C198.055 147.154 196.686 147.264 195.31 147.367L195.347 147.866C193.987 147.968 192.618 148.063 191.241 148.152L191.209 147.653C189.851 147.74 188.485 147.821 187.111 147.896L187.138 148.395C185.773 148.469 184.4 148.536 183.02 148.597L182.998 148.097C181.637 148.157 180.268 148.21 178.893 148.257L178.91 148.757C177.546 148.803 176.176 148.843 174.799 148.876L174.787 148.376C173.42 148.409 172.047 148.436 170.668 148.456L170.676 148.956C169.311 148.975 167.942 148.988 166.567 148.995L166.564 148.495C165.877 148.498 165.189 148.5 164.5 148.5C163.811 148.5 163.123 148.498 162.436 148.495L162.433 148.995C161.058 148.988 159.689 148.975 158.324 148.956L158.332 148.456C156.953 148.436 155.58 148.409 154.213 148.376L154.201 148.876C152.824 148.843 151.454 148.803 150.09 148.757L150.107 148.257C148.732 148.21 147.363 148.157 146.002 148.097L145.98 148.597C144.6 148.536 143.227 148.469 141.862 148.395L141.889 147.896C140.515 147.821 139.149 147.74 137.791 147.653L137.759 148.152C136.382 148.063 135.013 147.968 133.653 147.866L133.69 147.367C132.314 147.264 130.945 147.154 129.587 147.037L129.544 147.535C128.17 147.417 126.805 147.292 125.45 147.161L125.499 146.663C124.126 146.53 122.764 146.39 121.413 146.243L121.359 146.74C119.982 146.591 118.616 146.434 117.261 146.271L117.321 145.775C115.951 145.61 114.592 145.437 113.246 145.258L113.18 145.754C111.812 145.572 110.458 145.383 109.116 145.188L109.188 144.693C107.816 144.493 106.458 144.286 105.115 144.071L105.036 144.565C103.666 144.347 102.311 144.121 100.971 143.888L101.056 143.395C99.6938 143.158 98.3472 142.914 97.0171 142.663L96.9242 143.154C95.5643 142.897 94.2216 142.632 92.8968 142.36L92.9973 141.87C91.6379 141.591 90.2974 141.304 88.9765 141.01L88.8677 141.498C87.5078 141.195 86.1685 140.884 84.8506 140.565L84.9681 140.079C83.6169 139.752 82.2883 139.417 80.9833 139.074L80.8563 139.558C79.5079 139.204 78.1844 138.841 76.8866 138.47L77.024 137.99C75.6856 137.607 74.3749 137.216 73.093 136.817L72.9443 137.294C71.6092 136.878 70.305 136.454 69.0327 136.02L69.194 135.547C67.8717 135.096 66.5843 134.636 65.3331 134.167L65.1576 134.635C63.8408 134.142 62.5636 133.638 61.3273 133.125L61.519 132.663C60.2215 132.124 58.9699 131.576 57.7658 131.017L57.5553 131.47C56.2706 130.874 55.0391 130.267 53.8628 129.648L54.0955 129.206C52.8466 128.549 51.6616 127.881 50.5425 127.202L50.2831 127.629C49.0642 126.89 47.9217 126.136 46.8589 125.371L47.1512 124.965C45.9903 124.129 44.9278 123.279 43.9671 122.417L43.6332 122.789C42.5573 121.824 41.6045 120.841 40.7808 119.844L41.1663 119.525C40.2625 118.431 39.5219 117.322 38.9489 116.203L38.5038 116.431C37.8511 115.157 37.4055 113.862 37.1775 112.549L37.6701 112.464C37.5571 111.813 37.5 111.158 37.5 110.5C37.5 109.842 37.5571 109.187 37.6701 108.536L37.1775 108.451C37.4055 107.138 37.8511 105.843 38.5038 104.569L38.9489 104.797C39.5219 103.678 40.2625 102.569 41.1663 101.475L40.7808 101.156C41.6046 100.159 42.5573 99.1761 43.6332 98.2109L43.9671 98.583C44.9278 97.7212 45.9903 96.8713 47.1512 96.035L46.8589 95.6293C47.9218 94.8635 49.0642 94.1104 50.2831 93.3707L50.5425 93.7982C51.6616 93.1191 52.8467 92.4509 54.0955 91.7944L53.8628 91.3518C55.0391 90.7335 56.2706 90.1259 57.5554 89.5297L57.7658 89.9832C58.9699 89.4245 60.2215 88.8755 61.519 88.337L61.3273 87.8752C62.5636 87.362 63.8409 86.8585 65.1576 86.3649L65.3331 86.8331C66.5844 86.3641 67.8718 85.904 69.1941 85.4533L69.0327 84.9801C70.305 84.5464 71.6093 84.1215 72.9443 83.7056L73.093 84.183C74.375 83.7837 75.6856 83.3927 77.024 83.0103L76.8867 82.5295C78.1844 82.1587 79.5079 81.7961 80.8563 81.4419L80.9833 81.9255C82.2884 81.5827 83.6169 81.2477 84.9682 80.9209L84.8506 80.4349C86.1685 80.1162 87.5078 79.8051 88.8677 79.5021L88.9765 79.9901C90.2974 79.6958 91.6379 79.4089 92.9973 79.1298L92.8968 78.64C94.2216 78.368 95.5643 78.1033 96.9242 77.8462L97.0171 78.3375C98.3472 78.086 99.6939 77.8417 101.056 77.6047L100.971 77.1121C102.311 76.8792 103.666 76.6533 105.036 76.4348L105.115 76.9286C106.458 76.7143 107.816 76.507 109.188 76.307L109.116 75.8122C110.458 75.6165 111.812 75.4277 113.18 75.246L113.246 75.7416C114.592 75.5626 115.951 75.3905 117.321 75.2253L117.261 74.7289C118.616 74.5657 119.982 74.4092 121.359 74.2597L121.413 74.7568C122.764 74.6101 124.126 74.4701 125.499 74.3369L125.45 73.8393C126.805 73.7078 128.17 73.583 129.544 73.4649L129.587 73.9631C130.945 73.8464 132.314 73.7363 133.69 73.633L133.653 73.1344C135.013 73.0324 136.382 72.9369 137.759 72.8482L137.791 73.3471C139.149 73.2596 140.515 73.1786 141.889 73.1043L141.862 72.605C143.227 72.5312 144.6 72.4639 145.98 72.4032L146.002 72.9027C147.363 72.8429 148.732 72.7896 150.107 72.7429L150.09 72.2432C151.454 72.1968 152.824 72.157 154.201 72.1238L154.213 72.6236C155.58 72.5906 156.953 72.5642 158.332 72.5443L158.324 72.0444C159.689 72.0247 161.058 72.0116 162.433 72.005L162.436 72.5049C163.123 72.5017 163.811 72.5 164.5 72.5C165.189 72.5 165.877 72.5017 166.564 72.5049L166.567 72.005C167.942 72.0116 169.311 72.0247 170.676 72.0444L170.668 72.5443C172.047 72.5642 173.42 72.5906 174.787 72.6236L174.799 72.1238C176.176 72.157 177.546 72.1968 178.91 72.2432L178.893 72.7429C180.268 72.7896 181.637 72.8429 182.998 72.9027L183.02 72.4032C184.4 72.4639 185.773 72.5312 187.138 72.605L187.111 73.1043C188.485 73.1786 189.851 73.2596 191.209 73.3471L191.241 72.8482C192.618 72.9369 193.987 73.0324 195.347 73.1344L195.31 73.633C196.686 73.7363 198.055 73.8464 199.413 73.9631L199.456 73.4649C200.83 73.583 202.195 73.7078 203.55 73.8393L203.501 74.3369C204.874 74.4701 206.236 74.6101 207.587 74.7568L207.641 74.2597C209.018 74.4092 210.384 74.5657 211.739 74.7289L211.679 75.2253C213.049 75.3905 214.408 75.5626 215.754 75.7416L215.82 75.246C217.188 75.4277 218.542 75.6165 219.884 75.8122L219.812 76.307C221.184 76.507 222.542 76.7143 223.885 76.9286L223.964 76.4348C225.334 76.6534 226.689 76.8792 228.029 77.1121L227.944 77.6047C229.306 77.8417 230.653 78.086 231.983 78.3375L232.076 77.8462C233.436 78.1033 234.778 78.368 236.103 78.64L236.003 79.1298C237.362 79.4089 238.703 79.6958 240.024 79.9901L240.132 79.5021C241.492 79.8052 242.832 80.1162 244.149 80.4349L244.032 80.9209C245.383 81.2478 246.712 81.5827 248.017 81.9255L248.144 81.4419C249.492 81.7961 250.816 82.1588 252.113 82.5295L251.976 83.0103C253.314 83.3927 254.625 83.7837 255.907 84.183L256.056 83.7056C257.391 84.1215 258.695 84.5464 259.967 84.9801L259.806 85.4533C261.128 85.904 262.416 86.3641 263.667 86.8331L263.842 86.3649C265.159 86.8585 266.436 87.362 267.673 87.8752L267.481 88.337C268.778 88.8756 270.03 89.4245 271.234 89.9832L271.445 89.5297C272.729 90.1259 273.961 90.7335 275.137 91.3519L274.905 91.7944C276.153 92.4509 277.338 93.1191 278.458 93.7982L278.717 93.3707C279.936 94.1104 281.078 94.8636 282.141 95.6293L281.849 96.035C283.01 96.8714 284.072 97.7212 285.033 98.583L285.367 98.2109C286.443 99.1762 287.395 100.159 288.219 101.156L287.834 101.475C288.737 102.569 289.478 103.678 290.051 104.797L290.496 104.569Z" stroke="#AEBDE6" stroke-dasharray="4 4"/>
<path d="M480.589 104.068C481.203 105.346 481.621 106.643 481.834 107.956L481.341 108.036C481.447 108.687 481.5 109.342 481.5 110C481.5 110.658 481.447 111.313 481.341 111.964L481.834 112.044C481.621 113.357 481.203 114.654 480.589 115.932L480.139 115.716C479.594 116.851 478.889 117.976 478.026 119.088L478.421 119.395C477.623 120.424 476.697 121.44 475.647 122.439L475.302 122.077C474.377 122.957 473.354 123.826 472.234 124.684L472.538 125.081C471.499 125.877 470.379 126.662 469.182 127.434L468.911 127.013C467.812 127.723 466.646 128.422 465.416 129.11L465.66 129.546C464.504 130.194 463.291 130.831 462.025 131.457L461.803 131.009C460.618 131.596 459.386 132.173 458.107 132.741L458.309 133.198C457.092 133.739 455.832 134.271 454.533 134.794L454.346 134.33C453.112 134.826 451.842 135.315 450.535 135.795L450.708 136.264C449.451 136.726 448.162 137.179 446.842 137.625L446.682 137.151C445.414 137.578 444.116 137.999 442.79 138.411L442.939 138.888C441.653 139.288 440.341 139.681 439.003 140.065L438.865 139.585C437.57 139.957 436.25 140.322 434.907 140.68L435.036 141.163C433.736 141.51 432.414 141.849 431.072 142.181L430.952 141.696C429.647 142.019 428.322 142.335 426.978 142.644L427.09 143.131C425.772 143.434 424.436 143.731 423.082 144.02L422.977 143.531C421.652 143.815 420.309 144.092 418.95 144.362L419.047 144.852C417.725 145.115 416.387 145.371 415.034 145.621L414.943 145.129C413.614 145.374 412.271 145.613 410.913 145.846L410.998 146.339C409.658 146.568 408.304 146.792 406.937 147.008L406.858 146.515C405.524 146.726 404.177 146.932 402.818 147.131L402.891 147.626C401.549 147.823 400.196 148.013 398.832 148.198L398.765 147.702C397.416 147.884 396.057 148.06 394.687 148.231L394.748 148.727C393.405 148.893 392.052 149.054 390.688 149.209L390.632 148.712C389.283 148.865 387.925 149.012 386.557 149.153L386.608 149.651C385.254 149.791 383.89 149.924 382.518 150.052L382.471 149.555C381.123 149.68 379.766 149.8 378.4 149.914L378.442 150.413C377.083 150.526 375.717 150.634 374.342 150.735L374.305 150.237C372.953 150.337 371.592 150.432 370.224 150.52L370.257 151.019C368.899 151.107 367.534 151.19 366.161 151.266L366.134 150.767C364.774 150.843 363.408 150.913 362.036 150.977L362.059 151.477C360.702 151.54 359.338 151.598 357.968 151.651L357.949 151.151C356.586 151.203 355.217 151.249 353.842 151.29L353.856 151.789C352.499 151.83 351.135 151.864 349.766 151.893L349.756 151.393C348.393 151.421 347.026 151.444 345.653 151.462L345.659 151.961C344.298 151.979 342.931 151.99 341.56 151.996L341.558 151.496C340.873 151.499 340.187 151.5 339.5 151.5C338.813 151.5 338.127 151.499 337.442 151.496L337.44 151.996C336.069 151.99 334.702 151.979 333.341 151.961L333.347 151.462C331.974 151.444 330.607 151.421 329.244 151.393L329.234 151.893C327.865 151.864 326.502 151.83 325.144 151.789L325.158 151.29C323.783 151.249 322.414 151.203 321.051 151.151L321.032 151.651C319.662 151.598 318.299 151.54 316.941 151.477L316.965 150.977C315.592 150.913 314.226 150.843 312.867 150.767L312.839 151.266C311.467 151.19 310.101 151.107 308.743 151.019L308.776 150.52C307.408 150.432 306.047 150.337 304.695 150.237L304.658 150.735C303.283 150.634 301.917 150.526 300.558 150.413L300.6 149.914C299.234 149.8 297.877 149.68 296.529 149.555L296.482 150.052C295.11 149.924 293.746 149.791 292.392 149.651L292.443 149.153C291.075 149.012 289.717 148.865 288.368 148.712L288.312 149.209C286.948 149.054 285.595 148.893 284.252 148.727L284.313 148.231C282.943 148.06 281.584 147.884 280.235 147.702L280.169 148.198C278.804 148.013 277.451 147.823 276.109 147.626L276.182 147.131C274.823 146.932 273.476 146.726 272.142 146.515L272.063 147.009C270.696 146.792 269.342 146.568 268.002 146.339L268.087 145.846C266.729 145.613 265.386 145.374 264.057 145.129L263.966 145.621C262.613 145.371 261.275 145.115 259.953 144.852L260.05 144.362C258.691 144.092 257.348 143.815 256.023 143.531L255.918 144.02C254.564 143.731 253.228 143.435 251.91 143.131L252.022 142.644C250.678 142.335 249.353 142.019 248.049 141.696L247.928 142.181C246.586 141.849 245.264 141.51 243.964 141.163L244.093 140.68C242.75 140.322 241.43 139.957 240.135 139.585L239.997 140.065C238.659 139.681 237.347 139.288 236.061 138.888L236.21 138.411C234.884 137.999 233.586 137.579 232.318 137.151L232.158 137.625C230.838 137.179 229.549 136.726 228.292 136.264L228.465 135.795C227.158 135.315 225.888 134.826 224.654 134.33L224.467 134.794C223.168 134.271 221.909 133.739 220.691 133.198L220.894 132.741C219.614 132.173 218.382 131.596 217.197 131.009L216.975 131.457C215.709 130.831 214.497 130.194 213.34 129.546L213.584 129.11C212.354 128.422 211.188 127.723 210.089 127.013L209.818 127.434C208.621 126.662 207.502 125.877 206.462 125.081L206.766 124.684C205.646 123.826 204.623 122.957 203.698 122.077L203.353 122.439C202.303 121.44 201.377 120.424 200.579 119.395L200.974 119.088C200.111 117.976 199.406 116.851 198.861 115.716L198.411 115.932C197.797 114.654 197.379 113.357 197.166 112.044L197.659 111.964C197.553 111.313 197.5 110.658 197.5 110C197.5 109.342 197.553 108.687 197.659 108.036L197.166 107.956C197.379 106.643 197.797 105.346 198.411 104.068L198.861 104.284C199.406 103.149 200.111 102.024 200.974 100.912L200.579 100.605C201.377 99.5756 202.303 98.5603 203.353 97.561L203.698 97.9232C204.623 97.0431 205.646 96.1737 206.766 95.3163L206.462 94.9193C207.501 94.123 208.621 93.3385 209.818 92.5665L210.089 92.9866C211.188 92.2775 212.354 91.5784 213.584 90.89L213.34 90.4537C214.496 89.8065 215.709 89.1692 216.975 88.5426L217.197 88.9907C218.382 88.4042 219.614 87.8267 220.894 87.2588L220.691 86.8018C221.908 86.261 223.168 85.7291 224.467 85.2063L224.654 85.6701C225.888 85.1736 227.158 84.6852 228.465 84.2054L228.292 83.7361C229.549 83.2745 230.838 82.8208 232.158 82.3754L232.318 82.8492C233.586 82.4215 234.884 82.0014 236.21 81.5891L236.061 81.1117C237.347 80.7119 238.659 80.3195 239.997 79.9348L240.135 80.4153C241.43 80.0429 242.75 79.6776 244.093 79.3198L243.964 78.8366C245.264 78.4902 246.586 78.1508 247.928 77.8185L248.048 78.3039C249.353 77.9811 250.678 77.665 252.022 77.3559L251.91 76.8686C253.228 76.5655 254.564 76.2691 255.918 75.9796L256.023 76.4685C257.348 76.1852 258.691 75.9084 260.05 75.6384L259.953 75.148C261.275 74.8853 262.613 74.6289 263.966 74.3791L264.057 74.8708C265.386 74.6256 266.729 74.3866 268.087 74.154L268.002 73.6612C269.342 73.4317 270.696 73.2084 272.063 72.9915L272.142 73.4853C273.476 73.2737 274.823 73.0682 276.182 72.8689L276.109 72.3742C277.451 72.1775 278.804 71.9869 280.168 71.8024L280.235 72.2979C281.584 72.1157 282.943 71.9395 284.313 71.7695L284.252 71.2733C285.595 71.1067 286.948 70.9459 288.312 70.7912L288.368 71.288C289.717 71.1349 291.075 70.9878 292.443 70.8466L292.392 70.3492C293.746 70.2095 295.11 70.0756 296.482 69.9476L296.529 70.4455C297.877 70.3198 299.234 70.1998 300.6 70.0857L300.558 69.5875C301.917 69.474 303.283 69.3663 304.658 69.2645L304.695 69.7632C306.047 69.663 307.408 69.5685 308.776 69.4798L308.743 68.9808C310.101 68.8928 311.466 68.8104 312.839 68.7339L312.866 69.2331C314.226 69.1573 315.592 69.0871 316.964 69.0228L316.941 68.5233C318.298 68.4597 319.662 68.4017 321.032 68.3495L321.051 68.8491C322.414 68.7971 323.783 68.7508 325.158 68.7103L325.144 68.2105C326.501 68.1705 327.865 68.136 329.234 68.1073L329.244 68.6072C330.607 68.5786 331.974 68.5557 333.347 68.5385L333.341 68.0385C334.702 68.0215 336.069 68.01 337.44 68.0043L337.442 68.5043C338.127 68.5014 338.813 68.5 339.5 68.5C340.187 68.5 340.873 68.5014 341.558 68.5043L341.56 68.0043C342.931 68.01 344.298 68.0215 345.659 68.0385L345.653 68.5385C347.026 68.5557 348.393 68.5786 349.756 68.6072L349.766 68.1073C351.135 68.136 352.498 68.1705 353.856 68.2105L353.842 68.7103C355.217 68.7508 356.586 68.7971 357.949 68.8491L357.968 68.3495C359.338 68.4017 360.701 68.4597 362.059 68.5233L362.035 69.0228C363.408 69.0871 364.774 69.1573 366.133 69.2331L366.161 68.7339C367.533 68.8104 368.899 68.8928 370.257 68.9808L370.224 69.4798C371.592 69.5685 372.953 69.6629 374.305 69.7631L374.342 69.2645C375.717 69.3663 377.083 69.474 378.442 69.5875L378.4 70.0857C379.766 70.1998 381.123 70.3198 382.471 70.4455L382.518 69.9476C383.89 70.0756 385.254 70.2095 386.608 70.3492L386.557 70.8466C387.925 70.9878 389.283 71.1349 390.632 71.288L390.688 70.7912C392.052 70.9459 393.405 71.1067 394.748 71.2733L394.686 71.7695C396.057 71.9395 397.416 72.1157 398.765 72.2979L398.831 71.8024C400.196 71.9869 401.549 72.1775 402.891 72.3741L402.818 72.8689C404.177 73.0682 405.524 73.2737 406.858 73.4853L406.937 72.9915C408.304 73.2084 409.658 73.4317 410.998 73.6612L410.913 74.154C412.271 74.3866 413.614 74.6256 414.943 74.8708L415.034 74.3791C416.387 74.6289 417.725 74.8853 419.047 75.1479L418.95 75.6384C420.309 75.9084 421.652 76.1852 422.977 76.4685L423.082 75.9796C424.436 76.2691 425.772 76.5655 427.09 76.8686L426.978 77.3558C428.322 77.665 429.647 77.981 430.951 78.3039L431.072 77.8185C432.414 78.1508 433.736 78.4902 435.036 78.8366L434.907 79.3198C436.25 79.6776 437.57 80.0429 438.865 80.4153L439.003 79.9348C440.341 80.3195 441.653 80.7118 442.939 81.1117L442.79 81.5891C444.116 82.0014 445.414 82.4215 446.682 82.8492L446.842 82.3754C448.162 82.8208 449.451 83.2744 450.708 83.7361L450.535 84.2054C451.842 84.6852 453.112 85.1736 454.346 85.6701L454.533 85.2063C455.832 85.729 457.091 86.261 458.309 86.8018L458.106 87.2587C459.386 87.8267 460.618 88.4042 461.803 88.9907L462.025 88.5425C463.291 89.1692 464.504 89.8064 465.66 90.4537L465.416 90.89C466.646 91.5783 467.812 92.2774 468.911 92.9866L469.182 92.5664C470.379 93.3385 471.499 94.123 472.538 94.9193L472.234 95.3162C473.354 96.1736 474.377 97.043 475.302 97.9232L475.647 97.561C476.697 98.5603 477.623 99.5756 478.421 100.605L478.026 100.912C478.889 102.024 479.594 103.149 480.139 104.284L480.589 104.068Z" stroke="#AEBDE6" stroke-dasharray="4 4"/>
<path d="M132 44V44C132 50.6274 137.373 56 144 56H152.5C159.127 56 164.5 61.3726 164.5 68V68" stroke="#8B9CCC" stroke-linejoin="bevel"/>
<path d="M359 44V44.25C359 49.6348 354.635 54 349.25 54V54C343.865 54 339.5 58.3652 339.5 63.75V64" stroke="#8B9CCC" stroke-linejoin="bevel"/>
</svg>
